<mxfile host="app.diagrams.net" modified="2021-07-08T03:07:13.663Z" agent="5.0 (Macintosh; Intel Mac OS X 10_15_7) AppleWebKit/605.1.15 (KHTML, like Gecko) Version/14.1 Safari/605.1.15" etag="jAZaamChDQWMUZnd87uo" version="14.8.4" type="github">
  <diagram id="vdyNmjy8hWVNDShaOzdC" name="Page-1">
    <mxGraphModel dx="2603" dy="1068" grid="1" gridSize="10" guides="1" tooltips="1" connect="1" arrows="1" fold="1" page="1" pageScale="1" pageWidth="850" pageHeight="1100" math="0" shadow="0">
      <root>
        <mxCell id="0" />
        <mxCell id="1" parent="0" />
        <mxCell id="UO1LYAeTg8V_zdxmMocH-7" style="edgeStyle=orthogonalEdgeStyle;rounded=0;orthogonalLoop=1;jettySize=auto;html=1;entryX=0;entryY=0.5;entryDx=0;entryDy=0;" edge="1" parent="1" source="UO1LYAeTg8V_zdxmMocH-2" target="UO1LYAeTg8V_zdxmMocH-3">
          <mxGeometry relative="1" as="geometry" />
        </mxCell>
        <mxCell id="UO1LYAeTg8V_zdxmMocH-21" style="edgeStyle=orthogonalEdgeStyle;rounded=0;orthogonalLoop=1;jettySize=auto;html=1;entryX=0.5;entryY=1;entryDx=0;entryDy=0;entryPerimeter=0;" edge="1" parent="1" source="UO1LYAeTg8V_zdxmMocH-2" target="UO1LYAeTg8V_zdxmMocH-20">
          <mxGeometry relative="1" as="geometry" />
        </mxCell>
        <mxCell id="UO1LYAeTg8V_zdxmMocH-2" value="Channel Connector" style="rounded=0;whiteSpace=wrap;html=1;fillColor=#fff2cc;strokeColor=#d6b656;" vertex="1" parent="1">
          <mxGeometry x="60" y="490" width="120" height="60" as="geometry" />
        </mxCell>
        <mxCell id="UO1LYAeTg8V_zdxmMocH-8" style="edgeStyle=orthogonalEdgeStyle;rounded=0;orthogonalLoop=1;jettySize=auto;html=1;exitX=1;exitY=0.5;exitDx=0;exitDy=0;entryX=0;entryY=0.5;entryDx=0;entryDy=0;entryPerimeter=0;" edge="1" parent="1" source="UO1LYAeTg8V_zdxmMocH-3" target="UO1LYAeTg8V_zdxmMocH-4">
          <mxGeometry relative="1" as="geometry" />
        </mxCell>
        <mxCell id="UO1LYAeTg8V_zdxmMocH-3" value="Bulk Processor" style="rounded=0;whiteSpace=wrap;html=1;fillColor=#f8cecc;strokeColor=#b85450;" vertex="1" parent="1">
          <mxGeometry x="260" y="490" width="120" height="60" as="geometry" />
        </mxCell>
        <mxCell id="UO1LYAeTg8V_zdxmMocH-9" style="edgeStyle=orthogonalEdgeStyle;rounded=0;orthogonalLoop=1;jettySize=auto;html=1;entryX=0;entryY=0.5;entryDx=0;entryDy=0;" edge="1" parent="1" source="UO1LYAeTg8V_zdxmMocH-4" target="UO1LYAeTg8V_zdxmMocH-6">
          <mxGeometry relative="1" as="geometry" />
        </mxCell>
        <mxCell id="UO1LYAeTg8V_zdxmMocH-4" value="Payment Type&lt;br&gt;Topic" style="strokeWidth=2;html=1;shape=mxgraph.flowchart.direct_data;whiteSpace=wrap;fillColor=#e1d5e7;strokeColor=#9673a6;" vertex="1" parent="1">
          <mxGeometry x="460" y="490" width="170" height="60" as="geometry" />
        </mxCell>
        <mxCell id="UO1LYAeTg8V_zdxmMocH-11" style="edgeStyle=orthogonalEdgeStyle;rounded=0;orthogonalLoop=1;jettySize=auto;html=1;entryX=0;entryY=0.5;entryDx=0;entryDy=0;" edge="1" parent="1" source="UO1LYAeTg8V_zdxmMocH-6" target="UO1LYAeTg8V_zdxmMocH-10">
          <mxGeometry relative="1" as="geometry" />
        </mxCell>
        <mxCell id="UO1LYAeTg8V_zdxmMocH-6" value="Workflow Initiation" style="rounded=0;whiteSpace=wrap;html=1;fillColor=#f8cecc;strokeColor=#b85450;" vertex="1" parent="1">
          <mxGeometry x="700" y="490" width="120" height="60" as="geometry" />
        </mxCell>
        <mxCell id="UO1LYAeTg8V_zdxmMocH-10" value="Payment Workflow based on Payment Mode/Connector" style="whiteSpace=wrap;html=1;aspect=fixed;fillColor=#dae8fc;strokeColor=#6c8ebf;" vertex="1" parent="1">
          <mxGeometry x="910" y="450" width="140" height="140" as="geometry" />
        </mxCell>
        <mxCell id="UO1LYAeTg8V_zdxmMocH-12" value="" style="points=[[0.25,0,0],[0.5,0,0],[0.75,0,0],[1,0.25,0],[1,0.5,0],[1,0.75,0],[0.75,1,0],[0.5,1,0],[0.25,1,0],[0,0.75,0],[0,0.5,0],[0,0.25,0]];rounded=1;arcSize=10;dashed=1;dashPattern=8 3 1 3;strokeWidth=2;fillColor=none;" vertex="1" parent="1">
          <mxGeometry x="220" y="420" width="200" height="200" as="geometry" />
        </mxCell>
        <mxCell id="UO1LYAeTg8V_zdxmMocH-13" value="" style="points=[[0.25,0,0],[0.5,0,0],[0.75,0,0],[1,0.25,0],[1,0.5,0],[1,0.75,0],[0.75,1,0],[0.5,1,0],[0.25,1,0],[0,0.75,0],[0,0.5,0],[0,0.25,0]];rounded=1;arcSize=10;dashed=1;strokeColor=#000000;fillColor=none;gradientColor=none;dashPattern=8 3 1 3;strokeWidth=2;" vertex="1" parent="1">
          <mxGeometry x="880" y="420" width="200" height="200" as="geometry" />
        </mxCell>
        <mxCell id="UO1LYAeTg8V_zdxmMocH-14" value="" style="endArrow=classic;html=1;" edge="1" parent="1">
          <mxGeometry width="50" height="50" relative="1" as="geometry">
            <mxPoint y="520" as="sourcePoint" />
            <mxPoint x="50" y="520" as="targetPoint" />
          </mxGeometry>
        </mxCell>
        <mxCell id="UO1LYAeTg8V_zdxmMocH-15" value="Zeebe Workflow" style="text;html=1;align=center;verticalAlign=middle;resizable=0;points=[];autosize=1;strokeColor=none;" vertex="1" parent="1">
          <mxGeometry x="890" y="390" width="100" height="20" as="geometry" />
        </mxCell>
        <mxCell id="UO1LYAeTg8V_zdxmMocH-16" value="Zeebe Workflow" style="text;html=1;align=center;verticalAlign=middle;resizable=0;points=[];autosize=1;strokeColor=none;" vertex="1" parent="1">
          <mxGeometry x="220" y="390" width="100" height="20" as="geometry" />
        </mxCell>
        <mxCell id="UO1LYAeTg8V_zdxmMocH-17" value="- Zeebe workflow to parse CSV&lt;br&gt;&lt;div&gt;- Stage data based on payment mode&lt;/div&gt;&lt;div&gt;- Apply common data formatting and ordering&lt;/div&gt;&lt;div&gt;- Publish transactions to Kafka&lt;/div&gt;" style="text;html=1;align=left;verticalAlign=middle;resizable=0;points=[];autosize=1;strokeColor=none;" vertex="1" parent="1">
          <mxGeometry x="220" y="640" width="260" height="60" as="geometry" />
        </mxCell>
        <mxCell id="UO1LYAeTg8V_zdxmMocH-18" value="Kafka queues based on payment modes" style="text;html=1;align=center;verticalAlign=middle;resizable=0;points=[];autosize=1;strokeColor=none;" vertex="1" parent="1">
          <mxGeometry x="430" y="570" width="230" height="20" as="geometry" />
        </mxCell>
        <mxCell id="UO1LYAeTg8V_zdxmMocH-19" value="- Initiate payment workflows&lt;br&gt;&amp;nbsp;based on payment mode&lt;br&gt;- Data transformation &lt;br&gt;based on Payment connector&amp;nbsp;" style="text;html=1;align=left;verticalAlign=middle;resizable=0;points=[];autosize=1;strokeColor=none;" vertex="1" parent="1">
          <mxGeometry x="680" y="570" width="170" height="60" as="geometry" />
        </mxCell>
        <mxCell id="UO1LYAeTg8V_zdxmMocH-20" value="Bucket" style="shape=cylinder3;whiteSpace=wrap;html=1;boundedLbl=1;backgroundOutline=1;size=15;fillColor=none;gradientColor=none;" vertex="1" parent="1">
          <mxGeometry x="90" y="330" width="60" height="80" as="geometry" />
        </mxCell>
        <mxCell id="UO1LYAeTg8V_zdxmMocH-22" value="Blob Storage" style="text;html=1;align=center;verticalAlign=middle;resizable=0;points=[];autosize=1;strokeColor=none;" vertex="1" parent="1">
          <mxGeometry x="80" y="310" width="80" height="20" as="geometry" />
        </mxCell>
      </root>
    </mxGraphModel>
  </diagram>
</mxfile>
